<svg height="512" viewBox="0 0 64 64" width="512" xmlns="http://www.w3.org/2000/svg"><g id="Scooter-2" data-name="Scooter"><path d="m60 50a7 7 0 0 1 -14 0 6.9 6.9 0 0 1 .75-3.15 5.811 5.811 0 0 0 1.67-1.85h9.47a6.952 6.952 0 0 1 2.11 5z" fill="#57565c"/><path d="m51 35-1.93 8.35a6.107 6.107 0 0 1 -.65 1.65 5.811 5.811 0 0 1 -1.67 1.85 5.932 5.932 0 0 1 -3.52 1.15h-38.23v-6a12.054 12.054 0 0 1 .73-4.14h.01a11.589 11.589 0 0 1 1.19-2.39 12.1 12.1 0 0 1 3.44-3.47 11.962 11.962 0 0 1 6.63-2h16v14h8a4 4 0 0 0 4-4v-20h4l.27 2z" fill="#ff9811"/><path d="m53 13v6a1 1 0 0 1 -1 1h-8a3 3 0 0 1 -3-3v-2a3 3 0 0 1 3-3h8a1 1 0 0 1 1 1z" fill="#ff9811"/><circle cx="53" cy="50" fill="#898890" r="2"/><g fill="#ee8700"><path d="m61 45h-12.58a6.107 6.107 0 0 0 .65-1.65l1.93-8.35a10 10 0 0 1 10 10z"/><path d="m57 13v6h-1a3 3 0 0 1 0-6z"/><path d="m6.93 35.47a11.589 11.589 0 0 0 -1.19 2.39h-.01a1.976 1.976 0 0 1 -.73.14 2 2 0 1 1 1.93-2.53z"/><path d="m29 40v4h-20a6 6 0 0 1 6-6h12a2.006 2.006 0 0 1 2 2z"/></g><path d="m29 44v4h-4.29-6.71-6.71-2.29v-4z" fill="#ffa733"/><path d="m25 50a7 7 0 0 1 -14 0 6.908 6.908 0 0 1 .29-2h13.42a6.908 6.908 0 0 1 .29 2z" fill="#57565c"/><path d="m33 30h-9v-4h8a2.006 2.006 0 0 1 2 2v2z" fill="#898890"/><circle cx="18" cy="50" fill="#898890" r="2"/><path d="m24 26v4h-14a2.015 2.015 0 0 1 -2-2 2.006 2.006 0 0 1 2-2z" fill="#acabb1"/><path d="m24.93 14h-13.86a6.587 6.587 0 0 1 .22-1 7.006 7.006 0 0 1 13.42 0 6.587 6.587 0 0 1 .22 1z" fill="#e6e7e8"/><path d="m27 18-1 4h-16l-1-4z" fill="#898890"/><path d="m27 14a2.015 2.015 0 0 1 2 2 2.006 2.006 0 0 1 -2 2h-18a2.015 2.015 0 0 1 -2-2 2.006 2.006 0 0 1 2-2z" fill="#acabb1"/><circle cx="18" cy="6" fill="#d1d3d4" r="2"/><path d="m45.5 15a1.5 1.5 0 0 1 0 3h-9a1.5 1.5 0 0 1 0-3z" fill="#ee8700"/><path d="m27 18-.5 2h-17l-.5-2z" fill="#787680"/><path d="m24.93 14h-10.64a15.55 15.55 0 0 0 9.15-3.4 6.928 6.928 0 0 1 1.27 2.4 6.587 6.587 0 0 1 .22 1z" fill="#e0e0e2"/><path d="m33 30v2h-22.63a11.962 11.962 0 0 1 6.63-2z" fill="#ee8700"/><path d="m49.27 22h-4.27v-2h4z" fill="#ee8700"/><path d="m2 56h60v2h-60z" fill="#57565c"/><path d="m8 4h4v2h-4z" fill="#ff9811"/><path d="m6 8h4v2h-4z" fill="#ff9811"/><path d="m2 8h2v2h-2z" fill="#ff9811"/></g></svg>