<?xml version="1.0"?>
<svg xmlns="http://www.w3.org/2000/svg" id="Outline" viewBox="0 0 512 512" width="512" height="512"><path d="M488,64H464V56a8,8,0,0,0-8-8H400V40a24,24,0,0,0-48,0v8H336V40a24,24,0,0,0-48,0v8H192V40a24,24,0,0,0-48,0v8H128V40a24,24,0,0,0-48,0v8H24a8,8,0,0,0-8,8V456a8,8,0,0,0,8,8h8v24a8,8,0,0,0,8,8H488a8,8,0,0,0,8-8V72A8,8,0,0,0,488,64ZM32,448V160H448V448ZM368,40a8,8,0,0,1,16,0v8H368Zm-64,0a8,8,0,0,1,16,0v8H304ZM160,40a8,8,0,0,1,16,0v8H160ZM96,40a8,8,0,0,1,16,0v8H96ZM80,64v8a24.028,24.028,0,0,0,24,24,8,8,0,0,0,0-16,8.009,8.009,0,0,1-8-8V64h48v8a24.028,24.028,0,0,0,24,24,8,8,0,0,0,0-16,8.009,8.009,0,0,1-8-8V64H288v8a24.028,24.028,0,0,0,24,24,8,8,0,0,0,0-16,8.009,8.009,0,0,1-8-8V64h48v8a24.028,24.028,0,0,0,24,24,8,8,0,0,0,0-16,8.009,8.009,0,0,1-8-8V64h80v80H32V64ZM480,480H48V464H456a8,8,0,0,0,8-8V80h16Z"/><path d="M240,416A112,112,0,1,1,352,304,112.127,112.127,0,0,1,240,416Zm0-208a96,96,0,1,0,66.461,26.726A96.108,96.108,0,0,0,240,208Z"/><path d="M292.438,257.344a8,8,0,0,0-11.094,2.218l-58.587,87.881-25.1-25.1a8,8,0,0,0-11.314,11.314l32,32A8,8,0,0,0,224,368c.261,0,.525-.013.788-.039a8,8,0,0,0,5.868-3.523l64-96A8,8,0,0,0,292.438,257.344Z"/></svg>
