<svg height="512pt" viewBox="0 0 511 512" width="512pt" xmlns="http://www.w3.org/2000/svg"><path d="m383.691406 63.945312h-322.292968v-50.371093c0-7.496094 6.078124-13.574219 13.574218-13.574219h295.144532c7.496093 0 13.574218 6.078125 13.574218 13.574219zm0 0" fill="#d1a190"/><path d="m383.691406 13.683594v50.390625h-39.859375v-63.941407h26.285157c7.496093 0 13.574218 6.066407 13.574218 13.550782zm0 0" fill="#c78e7a"/><path d="m415.09375 137.660156-31.5-87.3125h-322.140625l-31.5 87.3125-.851563 10.429688h386.847657zm0 0" fill="#bd7c63"/><path d="m415.09375 137.660156h-385.140625l-29.40625 359.683594c-.6445312 7.894531 5.585937 14.65625 13.503906 14.65625h431.648438zm0 0" fill="#d1a190"/><path d="m415.09375 137.660156-39.792969.003906-31.496093-87.3125h39.785156zm0 0" fill="#ac6a51"/><path d="m445.695312 512h-39.785156l-30.609375-374.335938h39.796875zm0 0" fill="#c78e7a"/><path d="m506.582031 265.582031h-223.269531c-2.847656 0-5.15625-2.308593-5.15625-5.152343v-20.914063c0-2.847656 2.308594-5.15625 5.15625-5.15625h223.269531c2.847657 0 5.15625 2.308594 5.15625 5.15625v20.914063c0 2.84375-2.308593 5.152343-5.15625 5.152343zm0 0" fill="#537983"/><path d="m506.582031 265.582031h-18.605469v-31.222656h18.605469c2.847657 0 5.15625 2.308594 5.15625 5.15625v20.914063c0 2.84375-2.308593 5.152343-5.15625 5.152343zm0 0" fill="#3e5959"/><path d="m492.382812 207.070312c-.5625-2.308593-2.628906-3.933593-5.007812-3.933593h-184.859375c-2.375 0-4.441406 1.625-5.003906 3.933593l-6.660157 27.289063h208.191407zm0 0" fill="#7ca1b1"/><path d="m499.042969 234.359375h-30.605469v-31.222656h18.9375c2.378906 0 4.445312 1.625 5.007812 3.933593zm0 0" fill="#678d98"/><path d="m499.871094 265.582031-6.929688 59.839844-13.683594 118.226563-6.097656 52.625c-1.03125 8.949218-9.046875 15.726562-18.585937 15.726562h-119.253907c-9.539062 0-17.554687-6.777344-18.585937-15.726562l-6.097656-52.625-13.683594-118.226563-6.929687-59.839844zm0 0" fill="#f72c2c"/><path d="m499.871094 265.582031-6.929688 59.839844-13.683594 118.226563-6.097656 52.625c-1.03125 8.949218-9.046875 15.726562-18.585937 15.726562h-22.035157c9.539063 0 17.558594-6.777344 18.589844-15.726562l6.09375-52.625 13.6875-118.226563 6.929688-59.839844zm0 0" fill="#e32929"/><path d="m303.335938 380.558594 191-67.183594-7.777344 67.183594-175.449219 67.179687zm0 0" fill="#f9efef"/><path d="m494.339844 313.375-7.78125 67.179688-23.054688 8.828124 7.40625-63.960937.460938-3.964844zm0 0" fill="#efe2dd"/></svg>